<svg viewBox="0 0 1200 300" xmlns="http://www.w3.org/2000/svg" role="img" aria-label="Ali Sayed Ahmad — event-based vision, deep learning">
<title>Ali Sayed Ahmad</title>
<defs>
  <linearGradient id="bg" x1="0" y1="0" x2="1" y2="1"><stop offset="0%" stop-color="#0b0f16"/><stop offset="55%" stop-color="#0d1117"/><stop offset="100%" stop-color="#161b22"/></linearGradient>
  <linearGradient id="acc" x1="0" y1="0" x2="1" y2="0"><stop offset="0%" stop-color="#58a6ff"/><stop offset="50%" stop-color="#8b5cf6"/><stop offset="100%" stop-color="#2dd4bf"/></linearGradient>
  <linearGradient id="blade" x1="0" y1="0" x2="1" y2="0"><stop offset="0%" stop-color="#58a6ff" stop-opacity="0.04"/><stop offset="100%" stop-color="#58a6ff" stop-opacity="0.34"/></linearGradient>
  <radialGradient id="glow" cx="50%" cy="50%" r="50%"><stop offset="0%" stop-color="#58a6ff" stop-opacity="0.20"/><stop offset="100%" stop-color="#58a6ff" stop-opacity="0"/></radialGradient>
  <style>
    .name{font:700 54px 'Segoe UI',Helvetica,Arial,sans-serif;fill:#e6edf3}
    .role{font:400 20px 'Segoe UI',Helvetica,Arial,sans-serif;fill:#9da7b3;letter-spacing:.4px}
    .mono{font:500 15px 'Courier New',monospace;fill:#58a6ff;letter-spacing:.4px}
    .pill{font:600 13px 'Segoe UI',Helvetica,Arial,sans-serif;fill:#c9d1d9}
    .leg{font:500 12px 'Courier New',monospace;fill:#6e7681}
    @keyframes tw{0%,100%{opacity:.08}50%{opacity:1}}
    .ev{animation:tw 1.4s ease-in-out infinite}
  </style>
  </defs>
<rect x="3" y="3" width="1194" height="294" rx="20" fill="url(#bg)" stroke="#30363d" stroke-width="1.5"/>
<rect x="3" y="3" width="1194" height="4" rx="2" fill="url(#acc)"/>
<circle cx="1010" cy="150" r="135" fill="url(#glow)"/>
<g stroke="#1b2532" stroke-width="1" opacity="0.6"><line x1="640" y1="40" x2="640" y2="262"/><line x1="666" y1="40" x2="666" y2="262"/><line x1="692" y1="40" x2="692" y2="262"/><line x1="718" y1="40" x2="718" y2="262"/><line x1="744" y1="40" x2="744" y2="262"/><line x1="770" y1="40" x2="770" y2="262"/><line x1="796" y1="40" x2="796" y2="262"/><line x1="822" y1="40" x2="822" y2="262"/><line x1="848" y1="40" x2="848" y2="262"/><line x1="874" y1="40" x2="874" y2="262"/><line x1="900" y1="40" x2="900" y2="262"/><line x1="926" y1="40" x2="926" y2="262"/><line x1="952" y1="40" x2="952" y2="262"/><line x1="978" y1="40" x2="978" y2="262"/><line x1="1004" y1="40" x2="1004" y2="262"/><line x1="1030" y1="40" x2="1030" y2="262"/><line x1="1056" y1="40" x2="1056" y2="262"/><line x1="1082" y1="40" x2="1082" y2="262"/><line x1="1108" y1="40" x2="1108" y2="262"/><line x1="1134" y1="40" x2="1134" y2="262"/><line x1="1160" y1="40" x2="1160" y2="262"/><line x1="640" y1="44" x2="1180" y2="44"/><line x1="640" y1="70" x2="1180" y2="70"/><line x1="640" y1="96" x2="1180" y2="96"/><line x1="640" y1="122" x2="1180" y2="122"/><line x1="640" y1="148" x2="1180" y2="148"/><line x1="640" y1="174" x2="1180" y2="174"/><line x1="640" y1="200" x2="1180" y2="200"/><line x1="640" y1="226" x2="1180" y2="226"/><line x1="640" y1="252" x2="1180" y2="252"/></g>
<g transform="translate(1010,150)"><g><animateTransform attributeName="transform" type="rotate" from="0" to="360" dur="4.5s" repeatCount="indefinite"/><g transform="rotate(0)"><path d="M 0 -7 L 80 -2 L 80 2 L 0 7 Z" fill="url(#blade)" stroke="#58a6ff" stroke-opacity="0.5" stroke-width="1"/></g><g transform="rotate(120)"><path d="M 0 -7 L 80 -2 L 80 2 L 0 7 Z" fill="url(#blade)" stroke="#58a6ff" stroke-opacity="0.5" stroke-width="1"/></g><g transform="rotate(240)"><path d="M 0 -7 L 80 -2 L 80 2 L 0 7 Z" fill="url(#blade)" stroke="#58a6ff" stroke-opacity="0.5" stroke-width="1"/></g></g><circle r="15" fill="#161b22" stroke="#30363d" stroke-width="2"/><circle r="6" fill="#58a6ff"><animate attributeName="opacity" values="0.5;1;0.5" dur="2s" repeatCount="indefinite"/></circle></g>
<g><circle class="ev" cx="936.5" cy="172.7" r="2.3" fill="#ff7b72" opacity="0.62" style="animation-duration:1.46s;animation-delay:1.64s"/><circle class="ev" cx="928.7" cy="143.9" r="1.8" fill="#ff7b72" opacity="0.87" style="animation-duration:1.23s;animation-delay:0.25s"/><circle class="ev" cx="995.1" cy="109.9" r="3.1" fill="#ff7b72" opacity="0.61" style="animation-duration:1.62s;animation-delay:1.72s"/><circle class="ev" cx="1084.5" cy="157.0" r="1.9" fill="#58a6ff" opacity="0.74" style="animation-duration:1.17s;animation-delay:0.08s"/><circle class="ev" cx="921.0" cy="184.9" r="2.6" fill="#58a6ff" opacity="0.73" style="animation-duration:1.45s;animation-delay:1.85s"/><circle class="ev" cx="991.4" cy="254.2" r="2.9" fill="#ff7b72" opacity="0.64" style="animation-duration:1.68s;animation-delay:0.88s"/><circle class="ev" cx="999.2" cy="193.3" r="2.2" fill="#ff7b72" opacity="0.93" style="animation-duration:1.83s;animation-delay:1.08s"/><circle class="ev" cx="1033.0" cy="117.2" r="3.1" fill="#58a6ff" opacity="0.71" style="animation-duration:1.42s;animation-delay:2.75s"/><circle class="ev" cx="1083.1" cy="186.1" r="2.0" fill="#ff7b72" opacity="0.94" style="animation-duration:1.0s;animation-delay:0.93s"/><circle class="ev" cx="1012.4" cy="102.3" r="1.8" fill="#58a6ff" opacity="0.62" style="animation-duration:0.97s;animation-delay:2.23s"/><circle class="ev" cx="945.2" cy="124.7" r="2.8" fill="#58a6ff" opacity="0.6" style="animation-duration:1.04s;animation-delay:1.8s"/><circle class="ev" cx="962.5" cy="175.8" r="3.2" fill="#58a6ff" opacity="0.9" style="animation-duration:1.78s;animation-delay:0.85s"/><circle class="ev" cx="1026.1" cy="214.0" r="2.6" fill="#ff7b72" opacity="0.64" style="animation-duration:1.01s;animation-delay:2.77s"/><circle class="ev" cx="1005.3" cy="240.9" r="2.1" fill="#58a6ff" opacity="0.78" style="animation-duration:0.98s;animation-delay:0.25s"/><circle class="ev" cx="1013.5" cy="229.6" r="2.3" fill="#58a6ff" opacity="0.78" style="animation-duration:1.96s;animation-delay:1.35s"/><circle class="ev" cx="1044.8" cy="111.3" r="3.1" fill="#58a6ff" opacity="0.63" style="animation-duration:1.8s;animation-delay:0.7s"/><circle class="ev" cx="1003.2" cy="48.2" r="3.1" fill="#58a6ff" opacity="0.72" style="animation-duration:1.87s;animation-delay:1.69s"/><circle class="ev" cx="1043.8" cy="175.8" r="2.0" fill="#ff7b72" opacity="0.88" style="animation-duration:1.68s;animation-delay:0.72s"/><circle class="ev" cx="961.2" cy="116.2" r="2.8" fill="#58a6ff" opacity="0.77" style="animation-duration:0.98s;animation-delay:0.64s"/><circle class="ev" cx="1058.3" cy="85.6" r="3.1" fill="#58a6ff" opacity="0.66" style="animation-duration:1.12s;animation-delay:0.05s"/><circle class="ev" cx="968.5" cy="164.7" r="2.2" fill="#58a6ff" opacity="0.69" style="animation-duration:1.53s;animation-delay:0.37s"/><circle class="ev" cx="1091.1" cy="83.7" r="2.7" fill="#ff7b72" opacity="0.56" style="animation-duration:1.54s;animation-delay:0.39s"/><circle class="ev" cx="1109.4" cy="161.2" r="3.1" fill="#ff7b72" opacity="0.74" style="animation-duration:0.92s;animation-delay:1.78s"/><circle class="ev" cx="1002.5" cy="89.4" r="1.7" fill="#ff7b72" opacity="0.91" style="animation-duration:1.5s;animation-delay:2.06s"/><circle class="ev" cx="1003.0" cy="63.8" r="3.1" fill="#ff7b72" opacity="0.91" style="animation-duration:1.29s;animation-delay:1.92s"/><circle class="ev" cx="1056.6" cy="101.1" r="3.0" fill="#ff7b72" opacity="0.7" style="animation-duration:1.53s;animation-delay:1.75s"/><circle class="ev" cx="940.4" cy="110.2" r="2.6" fill="#58a6ff" opacity="0.84" style="animation-duration:1.99s;animation-delay:2.46s"/><circle class="ev" cx="942.4" cy="207.1" r="2.3" fill="#ff7b72" opacity="0.85" style="animation-duration:1.82s;animation-delay:0.23s"/><circle class="ev" cx="1088.3" cy="164.8" r="2.0" fill="#58a6ff" opacity="0.8" style="animation-duration:1.67s;animation-delay:1.39s"/><circle class="ev" cx="1059.9" cy="122.7" r="2.1" fill="#58a6ff" opacity="0.62" style="animation-duration:1.65s;animation-delay:0.57s"/><circle class="ev" cx="1079.3" cy="103.3" r="3.0" fill="#58a6ff" opacity="0.63" style="animation-duration:1.26s;animation-delay:1.86s"/><circle class="ev" cx="925.5" cy="189.2" r="3.0" fill="#ff7b72" opacity="0.68" style="animation-duration:1.32s;animation-delay:1.63s"/><circle class="ev" cx="1057.7" cy="204.9" r="3.0" fill="#ff7b72" opacity="0.66" style="animation-duration:1.68s;animation-delay:2.66s"/><circle class="ev" cx="1043.9" cy="210.9" r="1.9" fill="#58a6ff" opacity="0.75" style="animation-duration:1.36s;animation-delay:1.75s"/><circle class="ev" cx="971.9" cy="237.4" r="2.3" fill="#ff7b72" opacity="0.9" style="animation-duration:0.98s;animation-delay:0.09s"/><circle class="ev" cx="1093.8" cy="172.4" r="2.1" fill="#ff7b72" opacity="0.6" style="animation-duration:1.77s;animation-delay:0.05s"/><circle class="ev" cx="970.0" cy="161.7" r="2.0" fill="#ff7b72" opacity="0.8" style="animation-duration:1.05s;animation-delay:0.13s"/><circle class="ev" cx="933.0" cy="176.9" r="2.9" fill="#ff7b72" opacity="0.63" style="animation-duration:1.95s;animation-delay:1.92s"/><circle class="ev" cx="958.8" cy="158.1" r="2.4" fill="#58a6ff" opacity="0.66" style="animation-duration:1.69s;animation-delay:0.5s"/><circle class="ev" cx="961.3" cy="220.9" r="2.6" fill="#58a6ff" opacity="0.87" style="animation-duration:1.73s;animation-delay:1.1s"/><circle class="ev" cx="1048.0" cy="124.6" r="2.8" fill="#ff7b72" opacity="0.8" style="animation-duration:1.04s;animation-delay:1.27s"/><circle class="ev" cx="1064.8" cy="115.2" r="3.0" fill="#ff7b72" opacity="0.74" style="animation-duration:1.78s;animation-delay:2.64s"/><circle class="ev" cx="978.9" cy="106.4" r="2.9" fill="#ff7b72" opacity="0.64" style="animation-duration:1.61s;animation-delay:2.01s"/><circle class="ev" cx="1094.7" cy="88.4" r="2.5" fill="#ff7b72" opacity="0.91" style="animation-duration:1.77s;animation-delay:0.9s"/><circle class="ev" cx="1048.9" cy="100.4" r="2.3" fill="#58a6ff" opacity="0.74" style="animation-duration:1.51s;animation-delay:2.15s"/><circle class="ev" cx="1101.9" cy="166.6" r="2.9" fill="#58a6ff" opacity="0.87" style="animation-duration:1.09s;animation-delay:0.94s"/><circle class="ev" cx="1041.6" cy="188.5" r="2.8" fill="#58a6ff" opacity="0.93" style="animation-duration:1.82s;animation-delay:1.93s"/><circle class="ev" cx="907.5" cy="154.8" r="2.0" fill="#58a6ff" opacity="0.84" style="animation-duration:1.48s;animation-delay:0.81s"/><circle class="ev" cx="962.1" cy="92.9" r="2.5" fill="#ff7b72" opacity="0.89" style="animation-duration:1.24s;animation-delay:1.07s"/><circle class="ev" cx="1053.6" cy="118.6" r="3.1" fill="#ff7b72" opacity="0.63" style="animation-duration:1.48s;animation-delay:1.6s"/><circle class="ev" cx="938.6" cy="133.6" r="1.6" fill="#ff7b72" opacity="0.71" style="animation-duration:1.97s;animation-delay:1.44s"/><circle class="ev" cx="1034.3" cy="76.8" r="2.7" fill="#58a6ff" opacity="0.72" style="animation-duration:0.97s;animation-delay:1.51s"/><circle class="ev" cx="1107.3" cy="123.0" r="2.4" fill="#58a6ff" opacity="0.88" style="animation-duration:1.04s;animation-delay:1.21s"/><circle class="ev" cx="1068.0" cy="108.2" r="1.9" fill="#58a6ff" opacity="0.6" style="animation-duration:1.58s;animation-delay:2.59s"/><circle class="ev" cx="1017.6" cy="109.2" r="2.0" fill="#58a6ff" opacity="0.69" style="animation-duration:1.66s;animation-delay:0.9s"/><circle class="ev" cx="975.7" cy="117.9" r="1.8" fill="#ff7b72" opacity="0.63" style="animation-duration:1.46s;animation-delay:0.7s"/><circle class="ev" cx="942.4" cy="137.0" r="2.3" fill="#58a6ff" opacity="0.63" style="animation-duration:1.48s;animation-delay:0.45s"/><circle class="ev" cx="954.3" cy="89.7" r="3.0" fill="#58a6ff" opacity="0.64" style="animation-duration:1.57s;animation-delay:2.4s"/><circle class="ev" cx="1004.6" cy="56.7" r="2.1" fill="#ff7b72" opacity="0.64" style="animation-duration:1.25s;animation-delay:2.58s"/><circle class="ev" cx="1108.6" cy="149.0" r="2.0" fill="#58a6ff" opacity="0.59" style="animation-duration:1.7s;animation-delay:0.73s"/><circle class="ev" cx="1043.5" cy="91.0" r="1.8" fill="#ff7b72" opacity="0.56" style="animation-duration:1.34s;animation-delay:1.92s"/><circle class="ev" cx="1035.8" cy="231.0" r="3.1" fill="#ff7b72" opacity="0.85" style="animation-duration:1.03s;animation-delay:1.42s"/><circle class="ev" cx="924.8" cy="148.5" r="1.7" fill="#58a6ff" opacity="0.77" style="animation-duration:1.02s;animation-delay:0.1s"/><circle class="ev" cx="932.8" cy="142.8" r="1.9" fill="#58a6ff" opacity="0.95" style="animation-duration:1.12s;animation-delay:2.35s"/><circle class="ev" cx="1051.5" cy="129.5" r="3.1" fill="#58a6ff" opacity="0.68" style="animation-duration:1.41s;animation-delay:2.14s"/><circle class="ev" cx="937.6" cy="165.3" r="2.6" fill="#58a6ff" opacity="0.89" style="animation-duration:0.91s;animation-delay:1.96s"/><circle class="ev" cx="1039.3" cy="213.5" r="2.2" fill="#ff7b72" opacity="0.76" style="animation-duration:1.11s;animation-delay:0.46s"/><circle class="ev" cx="1108.5" cy="159.6" r="2.7" fill="#ff7b72" opacity="0.71" style="animation-duration:1.85s;animation-delay:1.76s"/><circle class="ev" cx="950.6" cy="107.1" r="2.9" fill="#ff7b72" opacity="0.85" style="animation-duration:1.18s;animation-delay:2.55s"/><circle class="ev" cx="1026.4" cy="57.7" r="3.0" fill="#58a6ff" opacity="0.86" style="animation-duration:1.87s;animation-delay:1.95s"/></g>
<circle cx="900" cy="276" r="3.2" fill="#58a6ff"/><text x="909" y="280" class="leg">ON</text><circle cx="962" cy="276" r="3.2" fill="#ff7b72"/><text x="971" y="280" class="leg">OFF events</text>
<text x="58" y="120" class="name">Ali Sayed Ahmad</text>
<rect x="60" y="138" width="452" height="4" rx="2" fill="url(#acc)"/>
<text x="60" y="180" class="role">Deep Learning · Computer Vision · Neuromorphic &amp; Edge AI</text>
<text x="60" y="214" class="mono">Research &#8594; Production   ·   Open to US / Europe · 2026</text>
<rect x="60" y="232" width="150" height="30" rx="15" fill="#1f2733" stroke="#30363d"/><text x="135" y="252" class="pill" text-anchor="middle">Event-Based Vision</text>
<rect x="219" y="232" width="148" height="30" rx="15" fill="#1f2733" stroke="#30363d"/><text x="293" y="252" class="pill" text-anchor="middle">Machine Learning</text>
<rect x="376" y="232" width="106" height="30" rx="15" fill="#1f2733" stroke="#30363d"/><text x="429" y="252" class="pill" text-anchor="middle">Few-Shot ML</text>
<rect x="491" y="232" width="76" height="30" rx="15" fill="#1f2733" stroke="#30363d"/><text x="529" y="252" class="pill" text-anchor="middle">Edge AI</text>
</svg>
